# xmcd CD database file
#
# Track frame offsets:
#	150
#	12763
#	25045
#	39009
#	50837
#	66254
#	78015
#	90947
#	103713
#	118636
#	133927
#	148344
#
# Disc length: 2140 seconds
#
# Revision: 0
# Processed by: cddbd v1.5.2PL0 Copyright (c) Steve Scherf et al.
# Submitted via: CDex 1.51
#
DISCID=96085a0c
DTITLE=Erroll Garner - Jazz Piano 7 (Daiso)
DYEAR=1900
DGENRE=Jazz
TTITLE0=Stardust
TTITLE1=Moonglow
TTITLE2=Symphony
TTITLE3=Backhome agin in Indiana
TTITLE4=All The Things You Are
TTITLE5=I've Got You Under My Skin
TTITLE6=Always
TTITLE7=Sometimes I'm Happy
TTITLE8=Lover Come Back To Me
TTITLE9=I Can't Get Started
TTITLE10=Loot to Boot
TTITLE11=Laura
EXTD=
EXTT0=
EXTT1=
EXTT2=
EXTT3=
EXTT4=
EXTT5=
EXTT6=
EXTT7=
EXTT8=
EXTT9=
EXTT10=
EXTT11=
PLAYORDER=
